<svg width="1024" height="1024" viewBox="0 0 1024 1024" fill="none" xmlns="http://www.w3.org/2000/svg">
  <defs>
    <linearGradient id="bg" x1="0%" y1="0%" x2="100%" y2="100%">
      <stop offset="0%" style="stop-color:#00D9FF;stop-opacity:1" />
      <stop offset="100%" style="stop-color:#00FFA3;stop-opacity:1" />
    </linearGradient>
    <linearGradient id="icon" x1="0%" y1="0%" x2="100%" y2="100%">
      <stop offset="0%" style="stop-color:#FFFFFF;stop-opacity:1" />
      <stop offset="100%" style="stop-color:#E0F7FA;stop-opacity:1" />
    </linearGradient>
  </defs>
  
  <rect width="1024" height="1024" rx="230" fill="url(#bg)"/>
  
  <g transform="translate(512, 512)">
    <path d="M-180,-120 L-180,120 L-120,120 L-120,-60 L-60,-60 L-60,120 L0,120 L0,-60 L60,-60 L60,120 L120,120 L120,-120 L60,-120 L60,0 L0,0 L0,-120 L-60,-120 L-60,0 L-120,0 L-120,-120 Z" 
          fill="url(#icon)" 
          stroke="#0F1419" 
          stroke-width="8"/>
    
    <circle cx="-150" cy="-150" r="20" fill="#00D9FF" opacity="0.3"/>
    <circle cx="150" cy="-150" r="20" fill="#00FFA3" opacity="0.3"/>
    <circle cx="0" cy="180" r="15" fill="#FFFFFF" opacity="0.2"/>
  </g>
</svg>
