<svg width="1284" height="2778" viewBox="0 0 1284 2778" fill="none" xmlns="http://www.w3.org/2000/svg">
  <defs>
    <linearGradient id="bgGradient" x1="0%" y1="0%" x2="100%" y2="100%">
      <stop offset="0%" style="stop-color:#0F1419;stop-opacity:1" />
      <stop offset="50%" style="stop-color:#1a1f2e;stop-opacity:1" />
      <stop offset="100%" style="stop-color:#0F1419;stop-opacity:1" />
    </linearGradient>
    <linearGradient id="iconGradient" x1="0%" y1="0%" x2="100%" y2="100%">
      <stop offset="0%" style="stop-color:#00D9FF;stop-opacity:1" />
      <stop offset="100%" style="stop-color:#00FFA3;stop-opacity:1" />
    </linearGradient>
  </defs>
  
  <rect width="1284" height="2778" fill="url(#bgGradient)"/>
  
  <g transform="translate(642, 1100)">
    <rect x="-200" y="-200" width="400" height="400" rx="80" fill="url(#iconGradient)" opacity="0.95"/>
    
    <path d="M-110,-80 L-110,80 L-70,80 L-70,-30 L-30,-30 L-30,80 L10,80 L10,-30 L50,-30 L50,80 L90,80 L90,-80 L50,-80 L50,10 L10,10 L10,-80 L-30,-80 L-30,10 L-70,10 L-70,-80 Z" 
          fill="#FFFFFF" 
          stroke="#0F1419" 
          stroke-width="4"/>
  </g>
  
  <text x="642" y="1650" font-family="Arial, sans-serif" font-size="120" font-weight="900" fill="#FFFFFF" text-anchor="middle" letter-spacing="6">
    FlowTrix
  </text>
  
  <text x="642" y="1750" font-family="Arial, sans-serif" font-size="42" font-weight="600" fill="rgba(255, 255, 255, 0.6)" text-anchor="middle" letter-spacing="3">
    Track Your Focus Journey
  </text>
  
  <circle cx="642" cy="2000" r="8" fill="#00D9FF" opacity="0.6">
    <animate attributeName="opacity" values="0.3;0.8;0.3" dur="2s" repeatCount="indefinite"/>
  </circle>
  <circle cx="592" cy="2000" r="8" fill="#00D9FF" opacity="0.4">
    <animate attributeName="opacity" values="0.2;0.6;0.2" dur="2s" begin="0.2s" repeatCount="indefinite"/>
  </circle>
  <circle cx="692" cy="2000" r="8" fill="#00FFA3" opacity="0.4">
    <animate attributeName="opacity" values="0.2;0.6;0.2" dur="2s" begin="0.4s" repeatCount="indefinite"/>
  </circle>
</svg>
